<?xml version="1.0" encoding="UTF-8"?>
<svg width="344px" height="86px" viewBox="0 0 344 86" version="1.1" xmlns="http://www.w3.org/2000/svg" xmlns:xlink="http://www.w3.org/1999/xlink">
    <g id="Page-1" stroke="none" stroke-width="1" fill="none" fill-rule="evenodd">
        <g id="Be-Lenka_LOGO_CMYK" transform="translate(-69.000000, -68.000000)">
            <g id="Group-12" transform="translate(69.000000, 67.898000)">
                <path d="M174.8529,51.5017 C173.3459,44.7257 168.2639,41.9957 163.1819,41.9957 C156.6869,41.9957 152.2629,45.4787 150.8519,51.5017 L174.8529,51.5017 Z M164.3109,69.7617 C169.0169,69.7617 172.7829,67.7847 174.8529,65.0547 L184.6409,70.7017 C180.2169,77.1027 173.1589,80.7737 164.1229,80.7737 C148.3109,80.7737 138.3329,69.9497 138.3329,55.9257 C138.3329,41.9007 148.4039,31.0767 163.1819,31.0767 C177.1119,31.0767 186.9949,42.0897 186.9949,55.9257 C186.9949,57.7147 186.8059,59.3137 186.5239,60.9137 L151.0399,60.9137 C152.7339,67.1267 157.9109,69.7617 164.3109,69.7617 L164.3109,69.7617 Z" id="Fill-2" fill="#00574a"></path>
                <path d="M239.4222,50.5603 L239.4222,79.4563 L227.2792,79.4563 L227.2792,52.0673 C227.2792,45.6663 223.4212,42.3723 217.9622,42.3723 C212.0322,42.3723 207.6092,45.8543 207.6092,54.0423 L207.6092,79.4563 L195.4672,79.4563 L195.4672,32.3943 L207.6092,32.3943 L207.6092,37.6653 C210.4322,33.4303 215.3262,31.0773 221.6332,31.0773 C231.6092,31.0773 239.4222,38.0413 239.4222,50.5603" id="Fill-4" fill="#00574a"></path>
                <polygon id="Fill-6" fill="#00574a" points="279.0482 79.4558 261.9182 58.0908 261.9182 79.4558 249.7772 79.4558 249.7772 13.5698 261.9182 13.5698 261.9182 53.1018 278.1072 32.3938 292.6032 32.3938 273.6842 55.6438 293.1672 79.4558"></polygon>
                <path d="M331.5717,55.9255 C331.5717,48.0195 326.0187,42.6545 318.4877,42.6545 C311.0527,42.6545 305.5007,48.0195 305.5007,55.9255 C305.5007,63.8315 311.0527,69.1965 318.4877,69.1965 C326.0187,69.1965 331.5717,63.8315 331.5717,55.9255 L331.5717,55.9255 Z M343.7137,32.3945 L343.7137,79.4555 L331.5717,79.4555 L331.5717,73.9035 C328.1827,78.1385 323.1007,80.7745 316.2287,80.7745 C303.7117,80.7745 293.3577,69.9495 293.3577,55.9255 C293.3577,41.9015 303.7117,31.0765 316.2287,31.0765 C323.1007,31.0765 328.1827,33.7125 331.5717,37.9475 L331.5717,32.3945 L343.7137,32.3945 Z" id="Fill-8" fill="#00574a"></path>
                <path d="M66.1966,45.2038 C67.4736,44.0928 68.8346,43.5688 70.4136,43.5688 C70.9116,43.5688 71.4296,43.6218 71.9746,43.7238 C72.5486,44.0158 73.5666,45.8188 73.0286,47.5728 C72.3496,49.7928 68.7826,51.6678 62.2176,51.7988 C63.1556,49.0128 64.5356,46.6488 66.1966,45.2038 M92.3156,60.4458 C89.2216,58.7188 85.3046,59.8308 83.5626,62.9148 C82.1836,65.3588 77.3676,71.8078 71.7326,72.2888 C68.8506,72.5318 66.6376,71.9428 64.9586,70.4788 C63.2046,68.9508 62.1576,66.6578 61.5686,64.6938 C61.5976,64.6948 61.6246,64.6948 61.6546,64.6948 C81.6716,64.6948 85.2286,53.0538 85.8496,49.1358 C87.1706,40.8078 81.9956,32.5578 74.5506,31.1218 C68.2406,29.9038 62.4296,31.4148 57.7456,35.4898 C53.0616,39.5658 50.3736,45.4128 49.0526,51.1598 C46.1946,50.9528 43.7066,50.6078 41.6186,50.1618 C40.9936,48.4818 40.1616,46.8468 39.0956,45.2908 C32.0616,35.0188 25.2656,36.8348 23.3496,37.6378 C19.5136,39.2418 17.5086,43.2648 18.3596,47.6448 C18.7016,49.4038 20.5796,55.7308 30.2086,60.0458 C30.0016,62.8598 29.0536,65.6868 27.7066,67.9058 C26.2716,70.2678 23.8836,72.6858 21.4266,72.3898 C12.9256,71.3528 13.1146,57.1448 13.9836,48.7678 C16.1496,27.9028 28.6546,11.3338 28.7746,11.1778 C30.9446,8.3608 30.4186,4.3188 27.6016,2.1498 C24.7836,-0.0222 20.7416,0.5038 18.5736,3.3228 C17.9686,4.1068 3.7316,22.8408 1.1776,47.4378 C-1.9844,77.8998 11.5316,84.1538 19.8696,85.1708 C20.5386,85.2518 21.2036,85.2918 21.8676,85.2908183 C28.3866,85.2908183 34.5726,81.4028 38.7116,74.5888 C40.6386,71.4138 42.1106,67.5528 42.7636,63.4628 C44.4756,63.7068 46.3186,63.8938 48.2776,64.0278 C48.8046,67.6328 50.5766,75.0228 56.4986,80.1838 C60.2986,83.4968 65.1186,85.2158 70.5466,85.2158 C71.2956,85.2158 72.0566,85.1828 72.8266,85.1158 C86.2686,83.9698 93.9826,70.6798 94.8186,69.1668 C96.5326,66.0648 95.4096,62.1748 92.3156,60.4458" id="Fill-10" fill="#b4b118"></path>
                <polygon id="Fill-1" fill="#00574a" points="117.532 79.456 129.674 79.456 129.674 10.747 117.532 10.747"></polygon>
            </g>
        </g>
    </g>
</svg>

